# xmcd
#
# Track frame offsets:
#	150
#	16508
#	28218
#	43749
#	57937
#	71739
#	98302
#	112530
#	128565
#	145669
#	157972
#	169916
#	184586
#	198308
#
# Disc length: 2817 seconds
#
# Revision: 0
# Processed by: cddbd v1.5.1PL0 Copyright (c) Steve Scherf et al.
# Submitted via: dBpowerAMP V4.0
#
DISCID=a70aff0e
DTITLE=Daniel O'Donnell - Branson Encore Disc 1
DYEAR=2005
DGENRE=Country
TTITLE0=Only This Moment Is Mine
TTITLE1=Our House Is A Home
TTITLE2=I Love You Because
TTITLE3=Rosa Rio
TTITLE4=I Just Want To Dance With You
TTITLE5=Medley
TTITLE6=Blueberry Hill
TTITLE7=If You Were Mine
TTITLE8=Secret Love (With Mary Duff)
TTITLE9=Adios Amigo
TTITLE10=Travellin' Light
TTITLE11=Will You Walk With Me (Mary Duff)
TTITLE12=The Last Thing On My Mind (With Mary Duff)
TTITLE13=Make The World Go Away
EXTD=
EXTT0=
EXTT1=
EXTT2=
EXTT3=
EXTT4=
EXTT5=
EXTT6=
EXTT7=
EXTT8=
EXTT9=
EXTT10=
EXTT11=
EXTT12=
EXTT13=
PLAYORDER=
